<?xml version="1.0" encoding="UTF-8" standalone="no"?>
<!-- Created with Inkscape (http://www.inkscape.org/) -->

<svg
   xmlns:dc="http://purl.org/dc/elements/1.1/"
   xmlns:cc="http://creativecommons.org/ns#"
   xmlns:rdf="http://www.w3.org/1999/02/22-rdf-syntax-ns#"
   xmlns:svg="http://www.w3.org/2000/svg"
   xmlns="http://www.w3.org/2000/svg"
   xmlns:sodipodi="http://sodipodi.sourceforge.net/DTD/sodipodi-0.dtd"
   xmlns:inkscape="http://www.inkscape.org/namespaces/inkscape"
   width="140"
   height="140"
   viewBox="0 0 37.041667 37.041667"
   version="1.1"
   id="svg8"
   inkscape:version="0.92.5 (2060ec1f9f, 2020-04-08)"
   sodipodi:docname="yandex.svg">
  <defs
     id="defs2" />
  <sodipodi:namedview
     id="base"
     pagecolor="#ffffff"
     bordercolor="#666666"
     borderopacity="1.0"
     inkscape:pageopacity="0.0"
     inkscape:pageshadow="2"
     inkscape:zoom="2.8"
     inkscape:cx="104.24927"
     inkscape:cy="89.711833"
     inkscape:document-units="mm"
     inkscape:current-layer="layer1"
     showgrid="false"
     units="px"
     inkscape:window-width="1848"
     inkscape:window-height="1016"
     inkscape:window-x="1352"
     inkscape:window-y="145"
     inkscape:window-maximized="1" />
  <metadata
     id="metadata5">
    <rdf:RDF>
      <cc:Work
         rdf:about="">
        <dc:format>image/svg+xml</dc:format>
        <dc:type
           rdf:resource="http://purl.org/dc/dcmitype/StillImage" />
        <dc:title></dc:title>
      </cc:Work>
    </rdf:RDF>
  </metadata>
  <g
     inkscape:label="Layer 1"
     inkscape:groupmode="layer"
     id="layer1"
     transform="translate(0,-259.95833)">
    <path
       style="opacity:1;fill:#000000;fill-opacity:1;stroke:#000000;stroke-width:0.01641498;stroke-miterlimit:4;stroke-dasharray:none;stroke-opacity:1"
       d="M 16.98929,296.61479 C 8.8347374,295.8498 2.2703842,289.9267 0.72844516,281.94244 c -0.26295939,-1.36162 -0.33090799,-2.28111 -0.29014734,-3.92632 0.0363169,-1.46586 0.11770217,-2.19023 0.38302112,-3.4091 0.69519336,-3.19369 2.34723026,-6.26854 4.65269506,-8.6598 2.9582189,-3.06831 6.718598,-4.92394 11.047555,-5.4516 1.119083,-0.13641 3.593516,-0.0998 4.677216,0.0693 6.495652,1.01317 11.853274,5.27922 14.227629,11.32885 0.538168,1.3712 0.881044,2.69648 1.115012,4.30972 0.16047,1.10645 0.161783,3.49258 0.0026,4.64381 -0.802582,5.8027 -4.174508,10.75745 -9.225462,13.556 -1.921027,1.06436 -4.210963,1.81807 -6.421023,2.11339 -0.962698,0.12864 -3.02971,0.18054 -3.908203,0.0981 z"
       id="path819"
       inkscape:connector-curvature="0" />
    <path
       style="fill:none;stroke:#000000;stroke-width:0.26458332px;stroke-linecap:butt;stroke-linejoin:miter;stroke-opacity:1"
       d="m 10.089425,266.33082 3.674955,0.0668 4.6104,14.09846 4.810851,-13.02939 4.810852,-1.67043 -11.091685,27.99648 -1.870887,0.46772 2.338608,-11.02486 z"
       id="path823"
       inkscape:connector-curvature="0" />
    <path
       style="opacity:1;fill:#aa0000;fill-opacity:1;stroke:#000000;stroke-width:0.01096738;stroke-miterlimit:4;stroke-dasharray:none;stroke-opacity:1"
       d=""
       id="path863"
       inkscape:connector-curvature="0"
       transform="matrix(0.26458333,0,0,0.26458333,0,259.95833)" />
    <path
       style="opacity:1;fill:#aa0000;fill-opacity:1;stroke:#000000;stroke-width:0.01096738;stroke-miterlimit:4;stroke-dasharray:none;stroke-opacity:1"
       d=""
       id="path873"
       inkscape:connector-curvature="0"
       transform="matrix(0.26458333,0,0,0.26458333,0,259.95833)" />
    <path
       style="opacity:1;fill:#aa0000;fill-opacity:1;stroke:#000000;stroke-width:0.01096738;stroke-miterlimit:4;stroke-dasharray:none;stroke-opacity:1"
       d=""
       id="path875"
       inkscape:connector-curvature="0"
       transform="matrix(0.26458333,0,0,0.26458333,0,259.95833)" />
    <path
       style="opacity:1;fill:#aa0000;fill-opacity:1;stroke:#000000;stroke-width:0.01096738;stroke-miterlimit:4;stroke-dasharray:none;stroke-opacity:1"
       d=""
       id="path891"
       inkscape:connector-curvature="0"
       transform="matrix(0.26458333,0,0,0.26458333,0,259.95833)" />
    <path
       style="opacity:1;fill:#aa0000;fill-opacity:1;stroke:#000000;stroke-width:0.01096738;stroke-miterlimit:4;stroke-dasharray:none;stroke-opacity:1"
       d=""
       id="path899"
       inkscape:connector-curvature="0"
       transform="matrix(0.26458333,0,0,0.26458333,0,259.95833)" />
    <path
       style="opacity:1;fill:#aa0000;fill-opacity:1;stroke:#000000;stroke-width:0.01096738;stroke-miterlimit:4;stroke-dasharray:none;stroke-opacity:1"
       d=""
       id="path903"
       inkscape:connector-curvature="0"
       transform="matrix(0.26458333,0,0,0.26458333,0,259.95833)" />
    <path
       style="opacity:1;fill:#aa0000;fill-opacity:1;stroke:#000000;stroke-width:0.01096738;stroke-miterlimit:4;stroke-dasharray:none;stroke-opacity:1"
       d=""
       id="path909"
       inkscape:connector-curvature="0"
       transform="matrix(0.26458333,0,0,0.26458333,0,259.95833)" />
    <path
       style="opacity:1;fill:#aa0000;fill-opacity:1;stroke:#000000;stroke-width:0.01096738;stroke-miterlimit:4;stroke-dasharray:none;stroke-opacity:1"
       d=""
       id="path915"
       inkscape:connector-curvature="0"
       transform="matrix(0.26458333,0,0,0.26458333,0,259.95833)" />
    <path
       style="opacity:1;fill:#aa0000;fill-opacity:1;stroke:#000000;stroke-width:0.01096738;stroke-miterlimit:4;stroke-dasharray:none;stroke-opacity:1"
       d=""
       id="path919"
       inkscape:connector-curvature="0"
       transform="matrix(0.26458333,0,0,0.26458333,0,259.95833)" />
    <path
       style="opacity:1;fill:#aa0000;fill-opacity:1;stroke:#000000;stroke-width:0.01551022;stroke-miterlimit:4;stroke-dasharray:none;stroke-opacity:1"
       d=""
       id="path921"
       inkscape:connector-curvature="0"
       transform="matrix(0.26458333,0,0,0.26458333,0,259.95833)" />
    <path
       style="opacity:1;fill:#aa0000;fill-opacity:1;stroke:#000000;stroke-width:0.01551022;stroke-miterlimit:4;stroke-dasharray:none;stroke-opacity:1"
       d=""
       id="path923"
       inkscape:connector-curvature="0"
       transform="matrix(0.26458333,0,0,0.26458333,0,259.95833)" />
    <rect
       style="opacity:1;fill:#ffcc00;fill-opacity:1;stroke:#000000;stroke-width:0.065;stroke-miterlimit:4;stroke-dasharray:none;stroke-opacity:1"
       id="rect927"
       width="19.755384"
       height="27.846193"
       x="8.9403057"
       y="265.01645"
       inkscape:transform-center-x="-5.2117558"
       inkscape:transform-center-y="0.53453906" />
    <path
       style="opacity:1;fill:#aa0000;fill-opacity:1;stroke:#000000;stroke-width:0.01641498;stroke-miterlimit:4;stroke-dasharray:none;stroke-opacity:1"
       d="m 16.41788,292.81541 c -0.643117,-0.0258 -1.222876,-0.07 -1.288353,-0.0982 -0.112161,-0.0483 -0.116818,-0.19675 -0.08049,-2.56566 0.02121,-1.38291 0.05532,-2.6497 0.0758,-2.81507 0.04098,-0.33088 0.06022,-2.1232 0.07489,-6.97903 0.0097,-3.22324 -5.29e-4,-3.37766 -0.224892,-3.37766 -0.134194,0 -0.290028,-0.34878 -0.381613,-0.85411 -0.06836,-0.37721 -0.108686,-0.46095 -0.255915,-0.53152 -0.205517,-0.0985 -0.317824,-0.34168 -0.419027,-0.90734 -0.06159,-0.34424 -0.102882,-0.42572 -0.251956,-0.49717 -0.19658,-0.0942 -0.433492,-0.60533 -0.364238,-0.78581 0.05938,-0.15473 -0.134879,-0.57313 -0.284227,-0.61218 -0.145942,-0.0382 -0.311772,-0.44091 -0.364004,-0.88404 -0.02776,-0.23549 -0.08813,-0.34352 -0.300408,-0.53757 -0.229436,-0.20972 -0.272057,-0.29397 -0.312505,-0.6177 -0.05278,-0.42242 -0.242702,-0.78584 -0.437275,-0.83672 -0.105493,-0.0276 -0.130299,-0.093 -0.130383,-0.34366 -1.22e-4,-0.36518 -0.174475,-0.75129 -0.379983,-0.8415 -0.156717,-0.0688 -0.218027,-0.21726 -0.221825,-0.53717 -0.0034,-0.28599 -0.225824,-0.73853 -0.428159,-0.8711 -0.140169,-0.0918 -0.172642,-0.16577 -0.172642,-0.39303 0,-0.19623 -0.05993,-0.37441 -0.200452,-0.596 -0.1102489,-0.17384 -0.2004522,-0.3451 -0.2004522,-0.38057 0,-0.0355 -0.06014,-0.12463 -0.133635,-0.19813 l -0.133635,-0.13364 h 1.9057532 1.905752 l 0.27044,0.41761 c 0.838727,1.29515 1.695972,2.80943 1.676134,2.96081 -0.01174,0.0896 0.01231,0.1629 0.05344,0.1629 0.203005,0 0.764331,0.80001 0.76764,1.09406 0.0017,0.15471 0.03183,0.20662 0.116018,0.20015 0.0907,-0.007 0.105888,0.0301 0.07517,0.18374 -0.0291,0.14551 -0.01336,0.19249 0.06451,0.19249 0.05665,0 0.119567,-0.0376 0.139805,-0.0835 0.02024,-0.0459 0.01853,0.0338 -0.0038,0.17728 -0.03764,0.2419 -0.03023,0.25809 0.102341,0.22343 0.07861,-0.0206 0.159764,-0.0101 0.180344,0.0232 0.02058,0.0333 0.0056,0.0605 -0.03334,0.0605 -0.09367,0 -0.09101,0.18005 0.0035,0.23848 0.04086,0.0253 0.09584,0.011 0.122184,-0.0316 0.02911,-0.0471 0.208498,0.16664 0.457461,0.54511 0.225261,0.34244 0.484872,0.69337 0.576914,0.77984 0.206545,0.19404 0.22379,0.1843 1.074353,-0.6066 0.717988,-0.66763 1.046868,-0.92525 1.181177,-0.92525 0.155947,0 0.601643,-0.48082 0.567328,-0.61204 -0.03561,-0.13618 0.127318,-0.39022 0.250279,-0.39022 0.128643,0 3.641888,-3.58526 3.914553,-3.99479 0.210591,-0.3163 0.253805,-0.34817 0.434312,-0.32026 0.110249,0.017 0.838161,0.0516 1.617583,0.0767 1.248991,0.0403 1.430161,0.0601 1.526952,0.16705 0.0604,0.0668 0.09922,0.15126 0.08626,0.18782 -0.01296,0.0366 -0.958618,1.11322 -2.101467,2.39258 -2.657705,2.97519 -2.520506,2.81358 -2.532304,2.98288 -0.0062,0.0892 -0.08532,0.18029 -0.205601,0.23662 -0.31169,0.14599 -0.836049,0.68823 -0.815092,0.84288 0.01321,0.0975 -0.02544,0.14082 -0.140129,0.15704 -0.217421,0.0308 -0.75448,0.59279 -0.729651,0.76358 0.01899,0.13064 -0.0074,0.15419 -0.348603,0.31138 -0.202915,0.0935 -0.467217,0.46262 -0.467217,0.65254 0,0.17444 -0.14099,0.29253 -0.418021,0.35015 -0.190059,0.0395 -0.216665,0.0714 -0.216098,0.25875 3.44e-4,0.11752 -0.01602,0.21366 -0.03638,0.21366 -0.02036,0 -0.154659,0.15425 -0.298429,0.34278 -0.14377,0.18852 -0.272726,0.30879 -0.286568,0.26727 -0.03749,-0.11246 -0.212639,-0.0912 -0.259725,0.0315 -0.02258,0.0588 -0.0083,0.1272 0.03166,0.15191 0.04475,0.0277 -0.06971,0.21136 -0.297652,0.47768 -0.813315,0.9503 -0.884028,1.06922 -0.95545,1.60681 -0.07265,0.54687 -0.202713,3.19486 -0.204324,4.16008 -5.29e-4,0.33693 -0.02311,0.57781 -0.05011,0.5353 -0.027,-0.0425 -0.05092,0.4085 -0.05316,1.00226 -0.0052,1.37541 -0.05139,3.0931 -0.151261,5.62315 -0.04352,1.10248 -0.08681,2.2601 -0.09621,2.57247 l -0.01708,0.56795 -0.199778,0.007 c -0.109877,0.004 -0.725964,-0.0144 -1.369081,-0.0402 z m 1.915139,-12.3778 c -0.01854,-0.0459 -0.0337,-0.008 -0.0337,0.0835 0,0.0919 0.01517,0.12946 0.0337,0.0835 0.01854,-0.0459 0.01854,-0.12111 0,-0.16704 z m -3.006783,-1.46999 c -0.01854,-0.0459 -0.0337,-0.008 -0.0337,0.0835 0,0.0919 0.01517,0.12946 0.0337,0.0835 0.01854,-0.0459 0.01854,-0.12111 0,-0.16705 z"
       id="path859"
       inkscape:connector-curvature="0" />
  </g>
</svg>
